<?xml version="1.0" standalone="no"?>
<!DOCTYPE svg PUBLIC "-//W3C//DTD SVG 20010904//EN"
 "http://www.w3.org/TR/2001/REC-SVG-20010904/DTD/svg10.dtd">
<svg version="1.0" xmlns="http://www.w3.org/2000/svg"
 width="225.000000pt" height="225.000000pt" viewBox="0 0 225.000000 225.000000"
 preserveAspectRatio="xMidYMid meet">
<metadata>
Created by potrace 1.14, written by Peter Selinger 2001-2017
</metadata>
<g transform="translate(0.000000,225.000000) scale(0.100000,-0.100000)"
fill="#000000" stroke="none">
<path d="M1835 2101 c-137 -36 -224 -157 -213 -295 6 -74 26 -116 83 -176 l43
-45 -91 -316 -90 -317 -48 -5 c-26 -3 -67 -15 -90 -26 -24 -12 -47 -21 -51
-21 -5 0 -81 61 -170 135 l-161 134 -1 93 c-1 82 -4 98 -28 138 -56 96 -140
144 -248 143 -79 0 -148 -32 -203 -92 -51 -56 -69 -104 -70 -181 -1 -70 27
-153 63 -185 18 -17 16 -24 -80 -215 l-99 -197 -52 -7 c-142 -19 -239 -115
-255 -252 -14 -113 54 -230 161 -280 56 -27 156 -31 212 -11 186 69 244 312
107 454 l-43 45 92 183 91 183 86 4 c76 3 93 7 136 34 l50 30 159 -134 c106
-88 159 -139 157 -150 -12 -71 -13 -148 -3 -184 42 -149 211 -234 364 -182
190 65 244 320 97 463 l-42 40 77 268 c42 147 83 291 91 319 l15 51 55 6 c142
15 257 157 241 299 -7 58 -34 122 -71 165 -54 64 -188 106 -271 84z m125 -149
c96 -48 106 -163 20 -236 -58 -48 -160 -30 -200 37 -27 44 -27 116 2 152 49
63 113 80 178 47z m-1143 -553 c98 -37 128 -156 57 -230 -75 -79 -203 -46
-235 60 -11 37 -10 48 7 89 15 38 28 52 64 70 50 25 66 27 107 11z m787 -603
c96 -40 112 -164 30 -236 -63 -55 -171 -34 -210 41 -61 120 56 247 180 195z
m-1201 -280 c54 -23 80 -59 84 -118 7 -88 -51 -151 -138 -151 -145 0 -189 199
-58 265 41 22 69 23 112 4z"/>
</g>
</svg>
